<?xml version="1.0" encoding="UTF-8" standalone="no"?>
<!DOCTYPE svg PUBLIC "-//W3C//DTD SVG 1.1//EN" "http://www.w3.org/Graphics/SVG/1.1/DTD/svg11.dtd">
<svg width="520px" height="520px" version="1.1" xmlns="http://www.w3.org/2000/svg" xmlns:xlink="http://www.w3.org/1999/xlink" xml:space="preserve" xmlns:serif="http://www.serif.com/" style="fill-rule:evenodd;clip-rule:evenodd;stroke-linejoin:round;stroke-miterlimit:2;">
    <path d="M484.606,296.012c-0.227,-0.351 -0.851,-0.683 -1.843,-1.005l-1.693,-0.554l-21.878,-5.26c-0.165,0.088 -0.338,0.308 -0.524,0.654c-0.184,0.362 -0.323,0.66 -0.402,0.91c-0.286,0.874 -0.262,1.541 0.08,1.993c0.333,0.46 0.766,0.798 1.311,1.04c0.54,0.261 1.179,0.421 1.895,0.52c0.735,0.105 1.348,0.228 1.848,0.392c-0.691,2.125 -1.965,4.018 -3.822,5.692c-1.852,1.671 -3.952,3.131 -6.281,4.369c-2.341,1.242 -4.704,2.273 -7.105,3.078c-2.407,0.804 -4.511,1.254 -6.342,1.347c-1.124,-0.365 -3.09,-0.899 -5.895,-1.609c-2.799,-0.7 -5.83,-1.482 -9.069,-2.328c-3.248,-0.848 -6.257,-1.651 -9.046,-2.426c-2.789,-0.768 -4.765,-1.271 -5.926,-1.513c-0.25,-0.079 -1.102,-0.224 -2.555,-0.414c-1.451,-0.197 -2.304,-0.342 -2.551,-0.422c-0.378,-0.123 -0.978,-0.277 -1.817,-0.485c-0.829,-0.194 -1.745,-0.467 -2.742,-0.79c-1,-0.324 -1.891,-0.643 -2.687,-0.974c-0.782,-0.324 -1.431,-0.571 -1.928,-0.736l-50.622,-2.19l-1.124,-0.364c-0.792,-0.53 -1.232,-0.887 -1.313,-1.046c-1.262,-2.069 -2.461,-4.324 -3.596,-6.764c-1.139,-2.441 -2.088,-4.946 -2.828,-7.537c-0.747,-2.59 -1.212,-5.19 -1.391,-7.8c-0.189,-2.622 0.126,-5.175 0.935,-7.669c0.407,-1.249 0.774,-2.268 1.102,-3.055c0.326,-0.793 0.711,-1.565 1.164,-2.31c0.453,-0.752 1.012,-1.503 1.668,-2.257c0.657,-0.751 1.52,-1.713 2.593,-2.886c2.22,-2.166 4.705,-4.81 7.44,-7.927c2.739,-3.111 5.684,-6.012 8.843,-8.716c3.154,-2.695 6.477,-4.952 9.973,-6.796c3.492,-1.821 7.111,-2.543 10.85,-2.15c1.611,0.103 4.378,0.312 8.275,0.618c3.905,0.308 8.082,0.627 12.524,0.971c4.438,0.343 8.631,0.709 12.576,1.095c3.95,0.38 6.668,0.615 8.164,0.687c0.039,-0.127 0.113,-0.235 0.209,-0.346c0.109,-0.1 0.183,-0.222 0.218,-0.343c0.328,-0.992 0.201,-1.66 -0.387,-1.999l-8.041,-2.615c-2.125,-0.691 -5.346,-1.801 -9.674,-3.343c-4.33,-1.558 -8.897,-3.003 -13.694,-4.36c-4.805,-1.358 -9.363,-2.419 -13.662,-3.204c-4.302,-0.778 -7.439,-0.659 -9.423,0.354l-44.112,21.042c-0.153,0.084 -0.59,0.25 -1.307,0.508l-5.022,1.772c-0.791,0.307 -1.384,0.453 -1.798,0.455c-0.626,0.213 -1.691,0.408 -3.206,0.611c-1.512,0.205 -2.33,0.279 -2.457,0.234l-43.425,-14.129c-5.993,-1.949 -11.962,-2.443 -17.94,-1.491c-5.966,0.956 -11.913,2.061 -17.839,3.305l-0.939,-0.303l-2.935,-1.79l-7.044,-5.394c-1.48,-1.168 -2.845,-2.262 -4.102,-3.295c-1.245,-1.029 -2.147,-1.772 -2.69,-2.223l-1.754,-0.67l-1.737,-0.676c-2.375,-0.77 -4.752,-1.096 -7.135,-0.974c-2.389,0.118 -4.757,0.417 -7.118,0.887c-2.364,0.475 -4.751,1.014 -7.155,1.613c-2.397,0.594 -4.801,0.988 -7.205,1.171c-1.43,-1.981 -2.603,-3.372 -3.525,-4.153c-0.918,-0.78 -2.25,-1.45 -3.99,-2.018c-2.378,-0.771 -4.981,-0.926 -7.815,-0.472c-2.844,0.448 -5.65,1.023 -8.423,1.711c-2.777,0.68 -5.4,1.315 -7.862,1.892c-2.469,0.57 -4.571,0.582 -6.324,0.014c-0.113,-0.039 -0.29,-0.163 -0.496,-0.377c-0.292,-0.363 -0.814,-0.881 -1.564,-1.536l-4.641,-4.204c-0.746,-0.661 -1.288,-1.105 -1.627,-1.358l-3.68,-1.404l-3.622,-0.97c-1.114,0.047 -3.044,0.14 -5.779,0.283c-2.74,0.146 -5.604,0.252 -8.591,0.319c-2.988,0.057 -5.809,0.15 -8.464,0.245c-2.659,0.1 -4.523,0.118 -5.606,0.042l-16.814,-0.818c-3.735,-0.174 -7.662,-0.388 -11.796,-0.631c-4.128,-0.236 -8.024,-0.473 -11.679,-0.696c-3.65,-0.213 -6.954,-0.441 -9.928,-0.642c-2.966,-0.206 -5.119,-0.384 -6.449,-0.547c-4.2,-1.088 -8.041,-1.269 -11.515,-0.542c-3.487,0.73 -5.959,3.341 -7.419,7.836c-0.283,0.873 -0.128,1.893 0.455,3.048c0.598,1.161 1.34,2.025 2.26,2.596c0.422,0.423 1.177,0.969 2.254,1.662c1.088,0.703 2.239,1.423 3.439,2.156c1.209,0.744 2.365,1.431 3.469,2.063c1.11,0.636 1.824,1.075 2.16,1.323c1.872,1.023 5.189,2.725 9.935,5.092c4.748,2.372 9.842,4.861 15.266,7.462c5.442,2.598 10.57,5.052 15.401,7.38c4.834,2.336 8.185,4.014 10.059,5.04c0.623,0.204 1.916,0.689 3.869,1.468c1.957,0.777 4.209,1.708 6.736,2.816c2.543,1.093 5.275,2.264 8.186,3.486c2.916,1.218 5.655,2.353 8.207,3.388c2.562,1.05 4.782,1.982 6.653,2.791c1.874,0.811 3.123,1.323 3.748,1.526c0.911,0.573 2.041,1.148 3.374,1.715c1.324,0.581 2.605,1.199 3.841,1.88c1.225,0.674 2.368,1.423 3.407,2.245c1.043,0.823 1.736,1.781 2.072,2.857l15.588,21.415l1.145,2.24l16.089,22.42l3.124,1.84c5.205,1.827 9.817,3.439 13.857,4.818c4.035,1.381 8.625,2.982 13.763,4.781c5.13,1.81 10.332,3.651 15.602,5.502c5.259,1.847 10.303,3.627 15.125,5.329c4.83,1.712 8.967,3.21 12.424,4.459l1.306,0.423l5.553,2.024l3.56,1.158l3.436,0.903l0.745,0.242l1.177,-0.443c-0.09,-0.163 -0.291,-0.469 -0.623,-0.926l-2.331,-3.04c-0.338,-0.451 -0.606,-0.781 -0.815,-0.99c-0.206,-0.201 -0.788,-0.664 -1.718,-1.385c-0.943,-0.721 -1.97,-1.5 -3.076,-2.348c-1.093,-0.836 -2.092,-1.606 -2.965,-2.308c-0.879,-0.699 -1.405,-1.212 -1.567,-1.548c-3.187,-3.797 -5.409,-8.099 -6.666,-12.929c-1.258,-4.823 -2.063,-9.639 -2.436,-14.456c2.965,-2.759 6.521,-4.123 10.65,-4.089c4.126,0.036 8.042,0.514 11.737,1.441c1.417,0.328 3.619,0.859 6.615,1.637c2.997,0.763 6.373,1.622 10.135,2.564c3.758,0.947 7.679,1.956 11.751,2.997c4.079,1.054 7.984,2.085 11.726,3.094c3.743,1.011 7.07,1.923 9.98,2.732c2.912,0.812 5.078,1.376 6.482,1.697c0.376,0.124 1.033,0.231 1.965,0.334c0.937,0.087 1.898,0.201 2.897,0.318c0.999,0.117 1.956,0.253 2.871,0.411c0.91,0.167 1.581,0.237 1.989,0.229l7.044,0.636l0.551,0.18c0.255,0.083 0.675,0.408 1.253,0.939c0.592,0.531 1.185,1.14 1.795,1.817c0.607,0.678 1.493,1.554 2.66,2.628c6.553,4.892 13.216,9.439 19.984,13.64c6.779,4.205 13.582,8.318 20.411,12.338l2.439,0.792c0.247,0.081 0.736,0.069 1.464,-0.046c0.723,-0.104 1.213,-0.119 1.455,-0.043c0.125,0.043 0.326,0.279 0.6,0.715c0.274,0.435 0.472,0.673 0.592,0.712c0.591,0.337 1.464,0.827 2.627,1.471l6.409,3.854c0.941,0.513 1.527,0.803 1.782,0.885c3.333,1.638 7.45,3.286 12.361,4.958c4.911,1.665 9.294,3.122 13.165,4.382c6.738,2.192 13.318,3.925 19.734,5.179c6.43,1.269 13.224,2.305 20.413,3.119c1.872,0.196 3.333,0.051 4.381,-0.429c1.057,-0.484 1.957,-1.232 2.692,-2.229c0.746,-0.999 1.379,-2.209 1.903,-3.628c0.532,-1.411 1.129,-2.911 1.772,-4.493c0.619,-1.041 1.293,-1.929 2.007,-2.654c0.724,-0.731 1.479,-1.461 2.26,-2.172c0.786,-0.701 1.501,-1.432 2.158,-2.196c0.66,-0.74 1.219,-1.808 1.666,-3.18c0.362,-1.122 0.645,-1.988 0.849,-2.618c0.201,-0.628 0.068,-1.494 -0.396,-2.614c-0.04,-0.292 -0.331,-1.108 -0.853,-2.448c-0.53,-1.348 -0.858,-2.253 -0.993,-2.706c-0.122,-0.454 0.029,-1.365 0.477,-2.741c0.406,-1.251 0.918,-2.674 1.497,-4.277c0.595,-1.596 1.019,-3.118 1.276,-4.557c0.265,-1.427 0.223,-2.784 -0.124,-4.072c-0.337,-1.276 -1.216,-2.294 -2.632,-3.028l-17.619,-9.461c-0.128,-0.044 -0.464,-0.602 -1.014,-1.676c-0.543,-1.075 -0.902,-1.983 -1.078,-2.731c-0.123,-0.04 -0.143,-0.188 -0.062,-0.435c0.081,-0.251 0.741,-0.997 1.975,-2.255c1.238,-1.254 2.601,-2.603 4.112,-4.041c1.504,-1.444 2.969,-2.759 4.395,-3.957c1.426,-1.195 2.376,-1.916 2.868,-2.164c0.509,-0.26 1.287,-0.448 2.369,-0.579c1.077,-0.133 2.172,-0.327 3.287,-0.589c1.127,-0.257 2.141,-0.61 3.046,-1.074c0.919,-0.464 1.487,-1.072 1.732,-1.825c0.307,-0.945 0.367,-1.603 0.176,-1.964c-0.011,-0.02 -0.021,-0.038 -0.03,-0.057Z" style="fill-rule:nonzero;"/>
</svg>
