<?xml version="1.0" encoding="UTF-8" standalone="no"?>
<!DOCTYPE svg PUBLIC "-//W3C//DTD SVG 1.1//EN" "http://www.w3.org/Graphics/SVG/1.1/DTD/svg11.dtd">
<svg width="100%" height="100%" viewBox="0 0 306 144" version="1.1" xmlns="http://www.w3.org/2000/svg" xmlns:xlink="http://www.w3.org/1999/xlink" xml:space="preserve" xmlns:serif="http://www.serif.com/" style="fill-rule:evenodd;clip-rule:evenodd;stroke-linejoin:round;stroke-miterlimit:2;">
    <g transform="matrix(1,0,0,1,-146.568,-224.248)">
        <g transform="matrix(2.5969,0,0,2.67722,-30.8298,219.425)">
            <g transform="matrix(32.5108,0,0,32.5108,67.9864,29.2187)">
                <path d="M0.541,0.006C0.548,0.013 0.558,0.018 0.57,0.019C0.572,0.015 0.577,0.006 0.585,-0.008C0.593,-0.023 0.599,-0.033 0.604,-0.04C0.623,-0.065 0.626,-0.095 0.612,-0.13C0.594,-0.163 0.563,-0.191 0.517,-0.214C0.488,-0.232 0.463,-0.243 0.439,-0.248C0.431,-0.249 0.417,-0.252 0.399,-0.259C0.38,-0.265 0.366,-0.268 0.355,-0.267C0.358,-0.27 0.36,-0.275 0.362,-0.282C0.364,-0.29 0.367,-0.296 0.371,-0.299C0.373,-0.304 0.374,-0.314 0.375,-0.327C0.377,-0.34 0.379,-0.35 0.383,-0.359C0.386,-0.368 0.393,-0.374 0.403,-0.377C0.426,-0.381 0.461,-0.382 0.507,-0.383C0.553,-0.383 0.586,-0.384 0.607,-0.386C0.617,-0.389 0.625,-0.395 0.63,-0.403C0.636,-0.412 0.641,-0.422 0.645,-0.435C0.649,-0.448 0.653,-0.457 0.656,-0.463C0.661,-0.468 0.663,-0.472 0.664,-0.476C0.665,-0.481 0.664,-0.484 0.661,-0.487C0.658,-0.491 0.655,-0.493 0.652,-0.495C0.65,-0.497 0.646,-0.5 0.64,-0.502C0.635,-0.505 0.631,-0.507 0.629,-0.509C0.614,-0.51 0.599,-0.511 0.583,-0.512C0.566,-0.512 0.548,-0.512 0.527,-0.511C0.506,-0.511 0.49,-0.51 0.48,-0.51C0.475,-0.511 0.458,-0.51 0.428,-0.509C0.398,-0.507 0.381,-0.509 0.377,-0.512C0.312,-0.514 0.232,-0.513 0.137,-0.509C0.132,-0.509 0.124,-0.508 0.112,-0.507C0.094,-0.505 0.084,-0.504 0.083,-0.504C0.074,-0.502 0.067,-0.5 0.06,-0.496C0.053,-0.493 0.047,-0.488 0.041,-0.482C0.036,-0.476 0.032,-0.47 0.03,-0.466C0.027,-0.461 0.024,-0.454 0.02,-0.444C0.017,-0.434 0.014,-0.427 0.013,-0.424C0.019,-0.418 0.021,-0.413 0.018,-0.408C0.014,-0.403 0.012,-0.397 0.01,-0.392C0.009,-0.386 0.012,-0.382 0.019,-0.379C0.049,-0.378 0.095,-0.378 0.158,-0.381C0.22,-0.383 0.267,-0.384 0.298,-0.382C0.308,-0.384 0.314,-0.383 0.316,-0.379C0.318,-0.376 0.317,-0.37 0.314,-0.362C0.311,-0.354 0.309,-0.348 0.309,-0.344C0.304,-0.337 0.301,-0.328 0.299,-0.319C0.296,-0.31 0.295,-0.299 0.294,-0.285C0.293,-0.271 0.292,-0.261 0.291,-0.257C0.266,-0.253 0.252,-0.25 0.247,-0.248C0.247,-0.247 0.223,-0.237 0.177,-0.218C0.157,-0.209 0.133,-0.193 0.105,-0.17C0.082,-0.151 0.066,-0.127 0.059,-0.099C0.049,-0.088 0.042,-0.076 0.038,-0.063C0.034,-0.049 0.035,-0.035 0.041,-0.023C0.043,-0.017 0.044,-0.014 0.044,-0.014C0.044,-0.012 0.046,-0.011 0.05,-0.011C0.054,-0.011 0.058,-0.011 0.061,-0.012C0.064,-0.012 0.067,-0.013 0.069,-0.016C0.072,-0.018 0.074,-0.02 0.077,-0.022C0.079,-0.024 0.081,-0.026 0.083,-0.03L0.089,-0.038C0.091,-0.04 0.094,-0.044 0.1,-0.048C0.105,-0.052 0.109,-0.055 0.109,-0.056C0.11,-0.057 0.13,-0.071 0.168,-0.098C0.214,-0.123 0.264,-0.135 0.318,-0.131C0.333,-0.13 0.348,-0.127 0.363,-0.122C0.382,-0.116 0.395,-0.112 0.402,-0.111C0.411,-0.107 0.42,-0.102 0.429,-0.097C0.437,-0.092 0.448,-0.085 0.46,-0.076L0.485,-0.059C0.49,-0.053 0.499,-0.043 0.511,-0.028C0.523,-0.012 0.533,-0.001 0.541,0.006Z" style="fill-rule:nonzero;"/>
            </g>
            <g transform="matrix(32.5108,0,0,32.5108,93.3403,29.2187)">
                <path d="M0.447,-0.186L0.521,-0.277C0.526,-0.282 0.531,-0.287 0.536,-0.295C0.541,-0.302 0.546,-0.31 0.554,-0.317C0.556,-0.327 0.56,-0.334 0.567,-0.339C0.574,-0.344 0.583,-0.348 0.593,-0.353C0.603,-0.357 0.61,-0.362 0.615,-0.368C0.618,-0.371 0.63,-0.377 0.652,-0.386C0.661,-0.385 0.676,-0.384 0.696,-0.382C0.716,-0.381 0.731,-0.379 0.74,-0.379C0.75,-0.379 0.764,-0.379 0.785,-0.381C0.795,-0.385 0.804,-0.394 0.813,-0.407C0.823,-0.421 0.829,-0.429 0.832,-0.432C0.832,-0.438 0.838,-0.45 0.85,-0.469C0.862,-0.488 0.864,-0.503 0.856,-0.514C0.848,-0.517 0.841,-0.519 0.834,-0.521C0.826,-0.523 0.818,-0.524 0.809,-0.525C0.8,-0.526 0.792,-0.527 0.786,-0.528C0.781,-0.528 0.772,-0.529 0.761,-0.53C0.75,-0.53 0.742,-0.531 0.738,-0.531C0.72,-0.533 0.704,-0.532 0.69,-0.528C0.673,-0.524 0.659,-0.519 0.648,-0.514C0.637,-0.508 0.623,-0.5 0.606,-0.49C0.595,-0.48 0.586,-0.468 0.577,-0.455C0.563,-0.443 0.546,-0.425 0.524,-0.402L0.445,-0.391L0.382,-0.386L0.355,-0.381C0.358,-0.396 0.358,-0.403 0.357,-0.414C0.356,-0.426 0.351,-0.437 0.342,-0.445C0.34,-0.444 0.322,-0.438 0.291,-0.426C0.259,-0.413 0.234,-0.406 0.216,-0.404C0.178,-0.403 0.14,-0.42 0.103,-0.457C0.099,-0.466 0.098,-0.476 0.101,-0.488C0.105,-0.499 0.106,-0.511 0.106,-0.523C0.106,-0.535 0.102,-0.543 0.093,-0.546C0.055,-0.512 0.031,-0.473 0.02,-0.428C0.014,-0.405 0.015,-0.383 0.022,-0.361C0.029,-0.338 0.041,-0.318 0.058,-0.301C0.076,-0.276 0.109,-0.264 0.157,-0.264C0.165,-0.262 0.176,-0.262 0.19,-0.265C0.204,-0.267 0.215,-0.269 0.223,-0.27C0.232,-0.271 0.241,-0.268 0.252,-0.261C0.246,-0.24 0.242,-0.211 0.239,-0.173C0.235,-0.135 0.232,-0.111 0.231,-0.1C0.231,-0.093 0.229,-0.08 0.226,-0.064C0.224,-0.047 0.222,-0.032 0.223,-0.02C0.223,-0.007 0.227,0.005 0.234,0.015L0.239,0.02L0.243,0.024C0.253,0.024 0.262,0.021 0.271,0.013C0.28,0.005 0.289,-0.005 0.299,-0.017C0.308,-0.029 0.316,-0.037 0.323,-0.042C0.327,-0.052 0.333,-0.063 0.342,-0.073C0.35,-0.083 0.36,-0.094 0.372,-0.105C0.383,-0.117 0.391,-0.125 0.396,-0.131C0.399,-0.133 0.404,-0.139 0.41,-0.149C0.417,-0.158 0.423,-0.165 0.429,-0.17C0.436,-0.174 0.441,-0.18 0.447,-0.186ZM0.433,-0.293C0.421,-0.278 0.411,-0.267 0.402,-0.26C0.399,-0.257 0.395,-0.253 0.39,-0.247L0.376,-0.229C0.372,-0.223 0.367,-0.218 0.362,-0.213C0.356,-0.207 0.351,-0.204 0.347,-0.204C0.342,-0.204 0.338,-0.206 0.332,-0.21C0.335,-0.224 0.338,-0.244 0.34,-0.272C0.34,-0.275 0.341,-0.278 0.341,-0.281L0.433,-0.293Z" style="fill-rule:nonzero;"/>
            </g>
            <g transform="matrix(32.5108,0,0,32.5108,124.712,29.2187)">
                <path d="M-0.33,-0.539C-0.325,-0.537 -0.319,-0.537 -0.313,-0.539C-0.309,-0.539 -0.304,-0.542 -0.296,-0.547C-0.289,-0.553 -0.283,-0.555 -0.278,-0.555C-0.259,-0.564 -0.236,-0.581 -0.208,-0.605C-0.203,-0.609 -0.197,-0.616 -0.19,-0.625C-0.184,-0.634 -0.179,-0.641 -0.176,-0.644C-0.175,-0.645 -0.171,-0.648 -0.164,-0.654C-0.157,-0.661 -0.153,-0.667 -0.153,-0.672C-0.151,-0.679 -0.146,-0.688 -0.138,-0.699C-0.129,-0.709 -0.124,-0.717 -0.122,-0.724C-0.122,-0.728 -0.12,-0.738 -0.117,-0.756C-0.113,-0.773 -0.112,-0.786 -0.113,-0.796C-0.113,-0.813 -0.118,-0.824 -0.127,-0.828C-0.154,-0.844 -0.175,-0.848 -0.191,-0.838C-0.196,-0.835 -0.2,-0.83 -0.204,-0.821C-0.208,-0.812 -0.211,-0.807 -0.214,-0.804C-0.215,-0.803 -0.217,-0.8 -0.22,-0.797C-0.223,-0.793 -0.226,-0.791 -0.227,-0.789C-0.228,-0.787 -0.23,-0.784 -0.231,-0.78C-0.233,-0.776 -0.232,-0.773 -0.23,-0.77C-0.227,-0.759 -0.226,-0.735 -0.228,-0.697C-0.228,-0.697 -0.228,-0.694 -0.228,-0.69C-0.228,-0.685 -0.228,-0.683 -0.229,-0.681C-0.229,-0.68 -0.229,-0.677 -0.23,-0.674C-0.231,-0.671 -0.232,-0.669 -0.234,-0.667C-0.235,-0.666 -0.237,-0.665 -0.24,-0.664C-0.24,-0.649 -0.247,-0.638 -0.26,-0.632C-0.266,-0.627 -0.275,-0.623 -0.288,-0.62C-0.3,-0.616 -0.309,-0.612 -0.315,-0.609C-0.316,-0.607 -0.319,-0.604 -0.324,-0.599C-0.329,-0.595 -0.333,-0.591 -0.336,-0.587C-0.338,-0.583 -0.339,-0.579 -0.34,-0.575C-0.34,-0.557 -0.337,-0.545 -0.33,-0.539Z" style="fill-rule:nonzero;"/>
            </g>
            <g transform="matrix(32.5108,0,0,32.5108,127.963,29.2187)">
                <path d="M0.063,-0.013C0.075,-0.009 0.09,-0.006 0.108,-0.005C0.162,-0.001 0.205,-0.013 0.235,-0.043C0.257,-0.074 0.276,-0.114 0.294,-0.163C0.307,-0.21 0.31,-0.246 0.304,-0.272C0.3,-0.285 0.301,-0.295 0.307,-0.304C0.314,-0.313 0.325,-0.321 0.342,-0.33C0.358,-0.338 0.368,-0.344 0.373,-0.348C0.382,-0.355 0.388,-0.357 0.391,-0.355C0.393,-0.353 0.393,-0.351 0.393,-0.348C0.392,-0.346 0.39,-0.34 0.386,-0.333L0.381,-0.321C0.38,-0.318 0.379,-0.316 0.378,-0.314C0.378,-0.313 0.377,-0.311 0.377,-0.309C0.377,-0.307 0.377,-0.306 0.377,-0.304C0.377,-0.294 0.377,-0.282 0.377,-0.27C0.377,-0.258 0.377,-0.247 0.377,-0.236C0.378,-0.225 0.379,-0.214 0.381,-0.202C0.383,-0.19 0.386,-0.179 0.389,-0.169C0.409,-0.128 0.428,-0.097 0.447,-0.075C0.457,-0.052 0.474,-0.034 0.5,-0.022C0.525,-0.011 0.552,-0.007 0.579,-0.011C0.59,-0.016 0.6,-0.022 0.608,-0.032C0.615,-0.041 0.623,-0.055 0.631,-0.074C0.639,-0.093 0.644,-0.104 0.645,-0.106C0.637,-0.114 0.622,-0.122 0.599,-0.129C0.576,-0.136 0.562,-0.141 0.555,-0.145C0.541,-0.152 0.528,-0.165 0.516,-0.186C0.504,-0.207 0.495,-0.22 0.489,-0.226C0.469,-0.28 0.463,-0.323 0.47,-0.354C0.477,-0.364 0.483,-0.384 0.488,-0.413C0.493,-0.443 0.503,-0.463 0.518,-0.474C0.523,-0.481 0.526,-0.486 0.527,-0.491C0.528,-0.501 0.519,-0.507 0.502,-0.507C0.478,-0.507 0.462,-0.501 0.453,-0.489C0.436,-0.484 0.413,-0.473 0.385,-0.457C0.357,-0.441 0.339,-0.431 0.332,-0.428C0.324,-0.42 0.314,-0.414 0.303,-0.412C0.291,-0.409 0.278,-0.407 0.263,-0.406C0.248,-0.406 0.236,-0.404 0.228,-0.402C0.216,-0.394 0.209,-0.393 0.207,-0.398C0.206,-0.402 0.207,-0.411 0.211,-0.425C0.209,-0.434 0.21,-0.448 0.214,-0.466C0.217,-0.484 0.218,-0.498 0.216,-0.507C0.169,-0.507 0.136,-0.506 0.115,-0.504C0.087,-0.506 0.063,-0.5 0.044,-0.486C0.024,-0.473 0.016,-0.453 0.02,-0.428C0.017,-0.422 0.016,-0.417 0.016,-0.413C0.016,-0.409 0.016,-0.406 0.018,-0.404C0.02,-0.402 0.023,-0.4 0.025,-0.399C0.028,-0.398 0.032,-0.397 0.036,-0.397C0.041,-0.397 0.045,-0.397 0.048,-0.397L0.074,-0.399C0.093,-0.403 0.106,-0.4 0.115,-0.391C0.124,-0.382 0.128,-0.37 0.127,-0.357C0.127,-0.343 0.124,-0.33 0.119,-0.316C0.117,-0.311 0.112,-0.297 0.101,-0.275C0.091,-0.252 0.087,-0.234 0.091,-0.22C0.088,-0.206 0.092,-0.198 0.101,-0.197C0.113,-0.196 0.124,-0.202 0.132,-0.216C0.144,-0.224 0.157,-0.229 0.171,-0.23C0.185,-0.23 0.198,-0.226 0.208,-0.217C0.218,-0.207 0.221,-0.195 0.218,-0.179C0.224,-0.157 0.219,-0.141 0.202,-0.132C0.185,-0.123 0.165,-0.121 0.142,-0.126C0.134,-0.126 0.121,-0.128 0.103,-0.132C0.085,-0.137 0.07,-0.138 0.059,-0.136C0.047,-0.133 0.038,-0.125 0.031,-0.11C0.023,-0.098 0.019,-0.085 0.017,-0.071C0.016,-0.057 0.019,-0.045 0.026,-0.033C0.033,-0.022 0.046,-0.015 0.063,-0.013Z" style="fill-rule:nonzero;"/>
            </g>
            <g transform="matrix(32.5108,0,0,32.5108,152.39,29.2187)">
                <path d="M-0.279,-0.538C-0.279,-0.532 -0.277,-0.53 -0.273,-0.534C-0.266,-0.541 -0.262,-0.545 -0.261,-0.544C-0.259,-0.545 -0.255,-0.545 -0.25,-0.543C-0.245,-0.542 -0.241,-0.541 -0.239,-0.541C-0.236,-0.54 -0.234,-0.541 -0.232,-0.544C-0.228,-0.546 -0.225,-0.553 -0.222,-0.565C-0.211,-0.569 -0.206,-0.576 -0.205,-0.585C-0.204,-0.589 -0.203,-0.597 -0.201,-0.608C-0.199,-0.62 -0.197,-0.629 -0.194,-0.635C-0.192,-0.649 -0.193,-0.669 -0.195,-0.695C-0.195,-0.699 -0.196,-0.705 -0.199,-0.712C-0.202,-0.719 -0.203,-0.725 -0.202,-0.73C-0.204,-0.736 -0.207,-0.743 -0.214,-0.753C-0.22,-0.763 -0.224,-0.771 -0.226,-0.777C-0.238,-0.795 -0.253,-0.81 -0.271,-0.821C-0.296,-0.83 -0.315,-0.833 -0.328,-0.831C-0.343,-0.828 -0.36,-0.818 -0.379,-0.802C-0.394,-0.789 -0.402,-0.765 -0.402,-0.733C-0.401,-0.703 -0.4,-0.684 -0.399,-0.674C-0.393,-0.666 -0.383,-0.67 -0.369,-0.685C-0.365,-0.688 -0.365,-0.694 -0.368,-0.702C-0.371,-0.71 -0.369,-0.714 -0.363,-0.716C-0.348,-0.717 -0.327,-0.71 -0.3,-0.696C-0.295,-0.694 -0.291,-0.689 -0.287,-0.681C-0.283,-0.673 -0.279,-0.668 -0.277,-0.666L-0.27,-0.652C-0.269,-0.65 -0.268,-0.647 -0.267,-0.645C-0.266,-0.642 -0.266,-0.64 -0.267,-0.638C-0.268,-0.636 -0.269,-0.634 -0.272,-0.632C-0.283,-0.629 -0.303,-0.626 -0.332,-0.625C-0.337,-0.626 -0.344,-0.626 -0.352,-0.626C-0.36,-0.626 -0.365,-0.623 -0.366,-0.618C-0.367,-0.613 -0.37,-0.608 -0.376,-0.601C-0.382,-0.593 -0.386,-0.587 -0.386,-0.582C-0.386,-0.563 -0.385,-0.551 -0.382,-0.545C-0.368,-0.543 -0.345,-0.542 -0.312,-0.542C-0.31,-0.542 -0.306,-0.542 -0.301,-0.543C-0.296,-0.544 -0.291,-0.544 -0.287,-0.544C-0.283,-0.543 -0.281,-0.541 -0.279,-0.538Z" style="fill-rule:nonzero;"/>
            </g>
            <g transform="matrix(32.5108,0,0,32.5108,155.641,29.2187)">
                <path d="M0.216,-0.009C0.236,-0.006 0.259,-0.006 0.285,-0.006C0.288,-0.006 0.296,-0.007 0.308,-0.007C0.321,-0.008 0.329,-0.009 0.335,-0.009C0.34,-0.01 0.347,-0.012 0.356,-0.015C0.364,-0.018 0.371,-0.023 0.376,-0.028C0.386,-0.034 0.396,-0.045 0.407,-0.061C0.418,-0.076 0.425,-0.086 0.428,-0.089C0.434,-0.097 0.44,-0.11 0.446,-0.128C0.452,-0.145 0.456,-0.158 0.46,-0.164C0.456,-0.175 0.457,-0.19 0.461,-0.208C0.453,-0.246 0.442,-0.271 0.426,-0.285C0.415,-0.305 0.389,-0.32 0.347,-0.331C0.344,-0.332 0.339,-0.333 0.332,-0.334C0.325,-0.335 0.319,-0.336 0.315,-0.337C0.311,-0.338 0.306,-0.34 0.301,-0.342C0.296,-0.345 0.294,-0.348 0.295,-0.351C0.296,-0.355 0.298,-0.36 0.3,-0.367C0.303,-0.373 0.307,-0.378 0.313,-0.38C0.319,-0.383 0.325,-0.384 0.331,-0.384C0.337,-0.384 0.344,-0.383 0.353,-0.382C0.363,-0.381 0.369,-0.38 0.373,-0.38C0.385,-0.378 0.397,-0.374 0.409,-0.369C0.421,-0.364 0.435,-0.358 0.451,-0.35C0.467,-0.342 0.479,-0.337 0.485,-0.334C0.489,-0.333 0.495,-0.33 0.504,-0.325C0.512,-0.32 0.519,-0.316 0.524,-0.313C0.53,-0.31 0.535,-0.31 0.541,-0.311C0.547,-0.313 0.552,-0.318 0.555,-0.327C0.563,-0.339 0.57,-0.357 0.576,-0.382C0.585,-0.393 0.587,-0.405 0.581,-0.416C0.576,-0.428 0.568,-0.437 0.555,-0.445C0.55,-0.447 0.541,-0.453 0.529,-0.462C0.517,-0.471 0.506,-0.477 0.498,-0.478C0.436,-0.505 0.371,-0.514 0.302,-0.504C0.289,-0.502 0.27,-0.501 0.247,-0.499C0.223,-0.498 0.202,-0.496 0.183,-0.493C0.164,-0.491 0.146,-0.486 0.13,-0.478C0.126,-0.476 0.112,-0.469 0.09,-0.459C0.068,-0.449 0.052,-0.44 0.043,-0.431C0.041,-0.424 0.037,-0.418 0.03,-0.41C0.022,-0.403 0.018,-0.396 0.017,-0.39C0.011,-0.387 0.008,-0.384 0.008,-0.381C0.008,-0.377 0.009,-0.373 0.011,-0.368C0.014,-0.363 0.015,-0.359 0.014,-0.355C0.015,-0.348 0.016,-0.343 0.019,-0.339C0.021,-0.336 0.025,-0.334 0.029,-0.334C0.034,-0.334 0.038,-0.335 0.043,-0.336C0.047,-0.337 0.052,-0.339 0.059,-0.341C0.065,-0.343 0.07,-0.344 0.073,-0.344C0.093,-0.354 0.124,-0.362 0.166,-0.369C0.17,-0.37 0.177,-0.371 0.188,-0.372C0.2,-0.374 0.209,-0.375 0.217,-0.375C0.224,-0.375 0.231,-0.374 0.237,-0.371C0.233,-0.354 0.224,-0.324 0.212,-0.281C0.211,-0.274 0.207,-0.263 0.201,-0.247C0.195,-0.231 0.192,-0.218 0.192,-0.209C0.195,-0.2 0.199,-0.194 0.204,-0.192C0.21,-0.19 0.215,-0.191 0.22,-0.194C0.225,-0.197 0.231,-0.201 0.239,-0.205C0.246,-0.21 0.252,-0.214 0.256,-0.215C0.276,-0.217 0.295,-0.214 0.315,-0.207C0.334,-0.199 0.347,-0.187 0.355,-0.17C0.363,-0.158 0.364,-0.148 0.356,-0.14C0.348,-0.132 0.337,-0.128 0.322,-0.127C0.274,-0.122 0.234,-0.128 0.2,-0.143C0.194,-0.145 0.182,-0.148 0.166,-0.151C0.15,-0.154 0.139,-0.157 0.131,-0.16C0.122,-0.171 0.112,-0.174 0.1,-0.171C0.088,-0.168 0.08,-0.161 0.076,-0.149C0.078,-0.142 0.076,-0.135 0.07,-0.127C0.065,-0.119 0.062,-0.112 0.062,-0.108C0.057,-0.097 0.058,-0.086 0.064,-0.076C0.07,-0.066 0.079,-0.061 0.092,-0.061C0.095,-0.057 0.099,-0.054 0.104,-0.051C0.108,-0.048 0.114,-0.045 0.122,-0.042C0.129,-0.04 0.135,-0.037 0.138,-0.036C0.159,-0.025 0.185,-0.016 0.216,-0.009Z" style="fill-rule:nonzero;"/>
            </g>
            <g transform="matrix(32.5108,0,0,32.5108,178.137,29.2187)">
                <path d="M-0.125,0.793L-0.119,0.798L-0.114,0.802C-0.095,0.805 -0.08,0.796 -0.067,0.775C-0.055,0.755 -0.049,0.734 -0.049,0.712C-0.085,0.669 -0.112,0.616 -0.133,0.553C-0.15,0.519 -0.155,0.464 -0.148,0.387C-0.145,0.382 -0.141,0.368 -0.133,0.346C-0.125,0.324 -0.118,0.306 -0.112,0.293C-0.106,0.28 -0.098,0.268 -0.09,0.257C-0.079,0.238 -0.06,0.215 -0.031,0.189C-0.002,0.163 0.015,0.147 0.021,0.14C0.031,0.13 0.041,0.121 0.053,0.113C0.065,0.106 0.081,0.099 0.099,0.091C0.118,0.083 0.13,0.077 0.137,0.074C0.179,0.068 0.211,0.035 0.234,-0.027C0.241,-0.043 0.241,-0.057 0.233,-0.07C0.225,-0.082 0.214,-0.095 0.198,-0.108C0.182,-0.12 0.172,-0.131 0.167,-0.141C0.13,-0.181 0.111,-0.223 0.112,-0.266C0.1,-0.301 0.102,-0.355 0.117,-0.43C0.123,-0.447 0.125,-0.462 0.121,-0.475C0.117,-0.488 0.108,-0.494 0.095,-0.494C0.083,-0.493 0.071,-0.485 0.061,-0.468C0.051,-0.458 0.043,-0.445 0.037,-0.431C0.032,-0.416 0.028,-0.399 0.025,-0.379C0.022,-0.359 0.019,-0.344 0.016,-0.334C0.015,-0.324 0.012,-0.308 0.006,-0.287C0,-0.266 -0.003,-0.25 -0.003,-0.241C-0.004,-0.231 -0,-0.216 0.007,-0.195C0.011,-0.186 0.014,-0.172 0.018,-0.153C0.022,-0.135 0.026,-0.119 0.031,-0.105C0.035,-0.09 0.042,-0.079 0.051,-0.069C0.063,-0.059 0.068,-0.049 0.065,-0.038C0.061,-0.027 0.057,-0.019 0.051,-0.014C0.045,-0.008 0.036,-0.001 0.024,0.007C0.012,0.016 0.004,0.023 -0.001,0.029C-0.009,0.037 -0.023,0.052 -0.043,0.073C-0.062,0.095 -0.078,0.111 -0.09,0.12C-0.132,0.187 -0.159,0.231 -0.169,0.252C-0.178,0.266 -0.194,0.305 -0.218,0.37C-0.23,0.407 -0.236,0.458 -0.234,0.523C-0.235,0.538 -0.234,0.553 -0.23,0.569C-0.226,0.585 -0.221,0.603 -0.214,0.622C-0.207,0.641 -0.202,0.655 -0.2,0.666L-0.184,0.698L-0.166,0.733C-0.162,0.742 -0.156,0.752 -0.148,0.763C-0.141,0.775 -0.133,0.784 -0.125,0.793Z" style="fill-rule:nonzero;"/>
            </g>
        </g>
    </g>
</svg>
