<?xml version="1.0" encoding="UTF-8" standalone="no"?>
<!DOCTYPE svg PUBLIC "-//W3C//DTD SVG 1.1//EN" "http://www.w3.org/Graphics/SVG/1.1/DTD/svg11.dtd">
<svg width="306px" height="144px" version="1.1" xmlns="http://www.w3.org/2000/svg" xmlns:xlink="http://www.w3.org/1999/xlink" xml:space="preserve" xmlns:serif="http://www.serif.com/" style="fill-rule:evenodd;clip-rule:evenodd;stroke-linejoin:round;stroke-miterlimit:2;">
    <path d="M44.812,73.916c0.628,0.627 1.439,1.011 2.434,1.152c0.225,-0.324 0.658,-1.119 1.299,-2.384c0.64,-1.267 1.171,-2.182 1.592,-2.746c1.624,-2.178 1.846,-4.784 0.664,-7.818c-1.467,-2.907 -4.146,-5.369 -8.038,-7.385c-2.382,-1.498 -4.556,-2.474 -6.521,-2.928c-0.711,-0.066 -1.847,-0.372 -3.406,-0.917c-1.56,-0.544 -2.797,-0.801 -3.712,-0.77c0.256,-0.18 0.468,-0.612 0.635,-1.295c0.166,-0.683 0.4,-1.16 0.7,-1.429c0.171,-0.48 0.302,-1.286 0.395,-2.418c0.092,-1.133 0.292,-2.075 0.601,-2.828c0.309,-0.753 0.872,-1.283 1.691,-1.588c2.012,-0.291 4.952,-0.444 8.818,-0.458c3.866,-0.014 6.684,-0.12 8.455,-0.319c0.845,-0.233 1.5,-0.722 1.965,-1.468c0.465,-0.747 0.872,-1.679 1.221,-2.796c0.349,-1.117 0.674,-1.918 0.977,-2.401c0.355,-0.434 0.565,-0.83 0.629,-1.187c0.066,-0.356 -0.019,-0.675 -0.255,-0.954c-0.236,-0.279 -0.474,-0.507 -0.715,-0.684c-0.241,-0.177 -0.586,-0.387 -1.034,-0.63c-0.448,-0.242 -0.757,-0.421 -0.927,-0.536c-1.245,-0.155 -2.556,-0.243 -3.933,-0.263c-1.376,-0.023 -2.954,-0.007 -4.732,0.045c-1.779,0.051 -3.095,0.075 -3.948,0.071c-0.373,-0.014 -1.83,0.035 -4.372,0.148c-2.542,0.113 -3.987,0.013 -4.334,-0.302c-5.484,-0.19 -12.224,-0.099 -20.223,0.273c-0.444,0.018 -1.139,0.079 -2.086,0.182c-1.55,0.164 -2.383,0.257 -2.498,0.279c-0.714,0.131 -1.367,0.354 -1.958,0.67c-0.587,0.273 -1.107,0.68 -1.562,1.22c-0.455,0.539 -0.779,1.009 -0.971,1.407c-0.193,0.398 -0.453,1.039 -0.78,1.922c-0.327,0.883 -0.546,1.456 -0.656,1.718c0.557,0.502 0.695,0.973 0.416,1.415c-0.279,0.442 -0.482,0.912 -0.61,1.408c-0.128,0.497 0.115,0.865 0.728,1.104c2.556,0.099 6.455,0.043 11.697,-0.167c5.242,-0.21 9.2,-0.253 11.875,-0.131c0.857,-0.106 1.361,-0.021 1.511,0.255c0.15,0.276 0.091,0.776 -0.178,1.499c-0.27,0.723 -0.408,1.239 -0.417,1.55c-0.41,0.676 -0.707,1.402 -0.889,2.179c-0.182,0.777 -0.319,1.781 -0.412,3.013c-0.094,1.232 -0.165,2.025 -0.213,2.379c-2.089,0.365 -3.344,0.65 -3.764,0.856c-0,0.059 -1.961,0.924 -5.88,2.595c-1.638,0.734 -3.669,2.127 -6.094,4.179c-1.935,1.637 -3.229,3.689 -3.881,6.155c-0.816,0.92 -1.389,1.962 -1.72,3.126c-0.349,1.231 -0.288,2.407 0.184,3.528c0.195,0.463 0.293,0.708 0.296,0.735c0.014,0.169 0.185,0.252 0.513,0.248c0.327,-0.003 0.626,-0.017 0.896,-0.042c0.27,-0.025 0.516,-0.135 0.738,-0.33c0.223,-0.195 0.42,-0.379 0.594,-0.55c0.173,-0.172 0.366,-0.406 0.58,-0.7l0.512,-0.722c0.128,-0.187 0.424,-0.467 0.887,-0.843c0.463,-0.375 0.728,-0.612 0.794,-0.71c0.086,-0.127 1.724,-1.341 4.914,-3.642c3.932,-2.226 8.17,-3.193 12.713,-2.901c1.253,0.078 2.522,0.339 3.808,0.783c1.597,0.552 2.7,0.873 3.309,0.965c0.748,0.352 1.486,0.758 2.213,1.219c0.727,0.46 1.614,1.067 2.66,1.822l2.071,1.475c0.471,0.5 1.214,1.414 2.226,2.742c1.012,1.328 1.849,2.303 2.508,2.925Z" style="fill-rule:nonzero;"/>
    <path d="M102.739,57.176l6.242,-7.909c0.398,-0.447 0.867,-0.846 1.277,-1.52c0.399,-0.654 0.796,-1.356 1.521,-1.951c0.153,-0.834 0.525,-1.464 1.118,-1.89c0.593,-0.427 1.307,-0.827 2.142,-1.2c0.835,-0.374 1.476,-0.829 1.921,-1.366c0.185,-0.265 1.21,-0.773 3.077,-1.524c0.771,0.037 2.01,0.138 3.716,0.302c1.706,0.164 2.954,0.258 3.742,0.283c0.788,0.026 2.034,-0.018 3.738,-0.132c0.85,-0.364 1.663,-1.134 2.44,-2.311c0.777,-1.176 1.301,-1.899 1.572,-2.168c0.011,-0.478 0.517,-1.545 1.518,-3.202c1,-1.658 1.155,-2.962 0.468,-3.914c-0.599,-0.23 -1.216,-0.426 -1.851,-0.588c-0.635,-0.162 -1.338,-0.293 -2.109,-0.393c-0.772,-0.1 -1.396,-0.174 -1.873,-0.222c-0.477,-0.047 -1.194,-0.103 -2.153,-0.167c-0.959,-0.065 -1.605,-0.11 -1.94,-0.137c-1.545,-0.124 -2.897,-0.037 -4.056,0.261c-1.435,0.369 -2.615,0.79 -3.539,1.264c-0.925,0.474 -2.116,1.15 -3.573,2.029c-0.872,0.929 -1.681,1.968 -2.427,3.116c-1.146,1.01 -2.629,2.541 -4.451,4.592l-6.716,0.959l-5.308,0.456l-2.26,0.355c0.224,-1.256 0.225,-1.833 0.166,-2.79c-0.068,-1.094 -0.485,-2.001 -1.253,-2.72c-0.217,0.069 -1.671,0.628 -4.362,1.677c-2.691,1.05 -4.785,1.66 -6.28,1.832c-3.236,0.143 -6.413,-1.384 -9.532,-4.581c-0.382,-0.776 -0.436,-1.669 -0.162,-2.677c0.275,-1.008 0.414,-2.038 0.418,-3.09c0.003,-1.053 -0.361,-1.703 -1.094,-1.953c-3.218,2.94 -5.286,6.344 -6.203,10.212c-0.481,2.027 -0.432,3.993 0.147,5.897c0.602,1.977 1.635,3.695 3.099,5.155c1.484,2.212 4.266,3.303 8.346,3.273c0.69,0.196 1.622,0.176 2.795,-0.06c1.173,-0.237 2.106,-0.403 2.799,-0.5c0.693,-0.098 1.487,0.183 2.383,0.842c-0.435,1.756 -0.804,4.295 -1.104,7.617c-0.301,3.323 -0.519,5.434 -0.653,6.336c-0.003,0.671 -0.127,1.734 -0.369,3.188c-0.243,1.455 -0.344,2.736 -0.303,3.846c0.041,1.109 0.345,2.104 0.912,2.986l0.416,0.468l0.36,0.335c0.824,0.027 1.618,-0.302 2.381,-0.987c0.764,-0.685 1.548,-1.548 2.351,-2.588c0.803,-1.04 1.47,-1.757 2,-2.15c0.378,-0.924 0.921,-1.83 1.628,-2.719c0.708,-0.89 1.543,-1.825 2.505,-2.807c0.962,-0.982 1.649,-1.729 2.06,-2.242c0.273,-0.213 0.675,-0.728 1.206,-1.545c0.531,-0.817 1.068,-1.421 1.612,-1.812c0.544,-0.391 1.02,-0.864 1.495,-1.466Zm-1.155,-9.277c-1.01,1.272 -1.902,2.235 -2.675,2.889c-0.256,0.208 -0.592,0.588 -1.01,1.14l-1.147,1.553c-0.347,0.483 -0.756,0.956 -1.229,1.418c-0.472,0.462 -0.891,0.707 -1.256,0.735c-0.365,0.028 -0.774,-0.138 -1.228,-0.496c0.283,-1.198 0.511,-2.993 0.683,-5.383c0.019,-0.271 0.039,-0.534 0.06,-0.789l7.802,-1.067Z" style="fill-rule:nonzero;"/>
    <path d="M118.588,26.467c0.408,0.184 0.905,0.204 1.492,0.062c0.307,-0.069 0.759,-0.329 1.356,-0.779c0.598,-0.451 1.115,-0.668 1.551,-0.653c1.579,-0.79 3.541,-2.243 5.884,-4.357c0.424,-0.346 0.929,-0.926 1.515,-1.742c0.586,-0.815 0.997,-1.35 1.234,-1.606c0.064,-0.091 0.402,-0.409 1.013,-0.956c0.611,-0.546 0.926,-1.052 0.944,-1.517c0.12,-0.627 0.538,-1.398 1.254,-2.315c0.716,-0.916 1.147,-1.651 1.294,-2.205c0.036,-0.347 0.196,-1.268 0.481,-2.762c0.285,-1.495 0.399,-2.658 0.344,-3.488c-0.018,-1.498 -0.433,-2.428 -1.246,-2.789c-2.213,-1.444 -4,-1.738 -5.363,-0.882c-0.404,0.229 -0.771,0.72 -1.102,1.471c-0.331,0.751 -0.602,1.239 -0.813,1.464c-0.094,0.127 -0.278,0.34 -0.551,0.639c-0.273,0.298 -0.461,0.524 -0.565,0.677c-0.105,0.153 -0.221,0.405 -0.35,0.754c-0.129,0.348 -0.097,0.637 0.095,0.867c0.233,0.987 0.295,3.102 0.185,6.347c-0.003,0.053 -0.011,0.273 -0.024,0.659c-0.013,0.385 -0.03,0.64 -0.053,0.766c-0.022,0.124 -0.065,0.317 -0.127,0.58c-0.063,0.263 -0.162,0.464 -0.295,0.603c-0.134,0.138 -0.303,0.249 -0.508,0.332c-0.041,1.259 -0.62,2.191 -1.736,2.797c-0.484,0.359 -1.26,0.706 -2.329,1.043c-1.069,0.337 -1.83,0.656 -2.284,0.959c-0.121,0.144 -0.39,0.409 -0.805,0.798c-0.416,0.388 -0.73,0.743 -0.942,1.067c-0.213,0.324 -0.333,0.684 -0.361,1.08c-0.048,1.551 0.223,2.58 0.812,3.086Z" style="fill-rule:nonzero;"/>
    <path d="M160.191,72.304c1.016,0.34 2.289,0.567 3.819,0.681c4.579,0.359 8.168,-0.737 10.766,-3.288c1.817,-2.725 3.476,-6.224 4.975,-10.496c1.066,-4.048 1.355,-7.21 0.866,-9.486c-0.388,-1.107 -0.307,-2.032 0.241,-2.774c0.547,-0.743 1.515,-1.487 2.902,-2.234c1.387,-0.747 2.26,-1.269 2.619,-1.565c0.823,-0.613 1.324,-0.837 1.502,-0.669c0.178,0.167 0.236,0.369 0.172,0.606c-0.064,0.238 -0.244,0.687 -0.541,1.35l-0.242,0.547c-0.056,0.127 -0.127,0.3 -0.214,0.519c-0.086,0.218 -0.151,0.399 -0.195,0.542c-0.043,0.142 -0.08,0.296 -0.112,0.46c-0.032,0.165 -0.044,0.309 -0.038,0.431c-0.007,0.92 -0.007,1.906 0.001,2.957c0.008,1.056 0.026,2.053 0.052,2.991c0.026,0.937 0.123,1.924 0.289,2.961c0.167,1.037 0.405,1.998 0.715,2.882c1.672,3.522 3.288,6.237 4.847,8.147c0.84,2.039 2.336,3.57 4.488,4.592c2.152,1.022 4.369,1.338 6.651,0.949c1.004,-0.361 1.823,-0.946 2.458,-1.754c0.635,-0.809 1.288,-2.036 1.961,-3.683c0.672,-1.648 1.071,-2.592 1.195,-2.835c-0.69,-0.69 -1.986,-1.338 -3.887,-1.946c-1.903,-0.607 -3.145,-1.074 -3.726,-1.401c-1.205,-0.588 -2.305,-1.781 -3.299,-3.579c-0.995,-1.798 -1.751,-2.966 -2.27,-3.504c-1.641,-4.687 -2.182,-8.401 -1.624,-11.158c0.597,-0.862 1.117,-2.567 1.563,-5.118c0.445,-2.55 1.287,-4.323 2.527,-5.32c0.429,-0.542 0.666,-1.018 0.713,-1.429c0.104,-0.921 -0.598,-1.388 -2.107,-1.4c-1.952,-0.016 -3.325,0.516 -4.118,1.595c-1.459,0.432 -3.369,1.346 -5.73,2.743c-2.361,1.397 -3.849,2.243 -4.465,2.537c-0.695,0.707 -1.527,1.181 -2.495,1.421c-0.967,0.24 -2.083,0.39 -3.346,0.45c-1.264,0.059 -2.242,0.184 -2.936,0.372c-1.012,0.675 -1.593,0.807 -1.744,0.395c-0.15,-0.412 -0.05,-1.205 0.3,-2.38c-0.137,-0.798 -0.055,-1.98 0.246,-3.547c0.301,-1.567 0.353,-2.778 0.156,-3.633c-3.916,0.001 -6.756,0.095 -8.52,0.283c-2.363,-0.123 -4.37,0.403 -6.02,1.578c-1.651,1.174 -2.322,2.874 -2.014,5.098c-0.199,0.49 -0.309,0.908 -0.33,1.256c-0.021,0.347 0.053,0.613 0.222,0.796c0.169,0.183 0.363,0.325 0.584,0.426c0.22,0.1 0.524,0.153 0.911,0.16c0.388,0.007 0.734,0.001 1.039,-0.019c0.305,-0.018 0.683,-0.049 1.132,-0.092c0.45,-0.042 0.794,-0.068 1.035,-0.077c1.561,-0.325 2.711,-0.085 3.45,0.72c0.738,0.805 1.09,1.799 1.056,2.98c-0.033,1.181 -0.284,2.367 -0.752,3.558c-0.099,0.426 -0.591,1.623 -1.474,3.589c-0.884,1.973 -1.157,3.574 -0.821,4.801c-0.253,1.196 0.031,1.847 0.851,1.955c1.01,0.132 1.877,-0.406 2.599,-1.614c0.999,-0.732 2.096,-1.136 3.29,-1.213c1.194,-0.076 2.224,0.303 3.089,1.138c0.865,0.835 1.147,1.913 0.847,3.235c0.551,1.935 0.11,3.295 -1.322,4.08c-1.432,0.785 -3.138,0.983 -5.118,0.594c-0.631,0.001 -1.717,-0.197 -3.257,-0.593c-1.539,-0.396 -2.789,-0.488 -3.748,-0.275c-0.96,0.213 -1.744,0.949 -2.353,2.209c-0.625,1.088 -1.003,2.226 -1.135,3.415c-0.133,1.188 0.115,2.281 0.741,3.278c0.627,0.997 1.655,1.598 3.083,1.805Z" style="fill-rule:nonzero;"/>
    <path d="M194.793,26.556c-0.008,0.56 0.149,0.674 0.471,0.34c0.591,-0.614 0.936,-0.906 1.033,-0.877c0.188,-0.063 0.496,-0.037 0.923,0.08c0.427,0.117 0.756,0.198 0.986,0.243c0.231,0.045 0.417,-0.064 0.56,-0.327c0.292,-0.146 0.569,-0.739 0.832,-1.779c0.901,-0.383 1.372,-0.97 1.413,-1.761c0.094,-0.331 0.215,-1.007 0.364,-2.028c0.149,-1.021 0.342,-1.786 0.579,-2.296c0.162,-1.208 0.133,-2.957 -0.09,-5.247c0.023,-0.336 -0.092,-0.826 -0.344,-1.472c-0.252,-0.645 -0.333,-1.161 -0.241,-1.548c-0.118,-0.501 -0.45,-1.186 -0.995,-2.056c-0.545,-0.87 -0.872,-1.567 -0.982,-2.091c-1.028,-1.553 -2.318,-2.827 -3.871,-3.823c-2.057,-0.766 -3.658,-1.053 -4.805,-0.858c-1.264,0.304 -2.678,1.147 -4.242,2.529c-1.29,1.185 -1.941,3.203 -1.953,6.052c0.027,2.534 0.114,4.227 0.262,5.079c0.507,0.715 1.341,0.409 2.502,-0.918c0.316,-0.32 0.348,-0.815 0.096,-1.486c-0.253,-0.671 -0.125,-1.066 0.383,-1.187c1.292,-0.096 3.071,0.483 5.337,1.737c0.395,0.178 0.768,0.603 1.118,1.275c0.351,0.673 0.623,1.104 0.818,1.296c0.051,0.113 0.147,0.297 0.29,0.552c0.143,0.254 0.258,0.476 0.346,0.666c0.088,0.19 0.165,0.399 0.231,0.628c0.064,0.229 0.064,0.435 -0.001,0.619c-0.066,0.184 -0.2,0.336 -0.403,0.457c-0.948,0.296 -2.66,0.518 -5.135,0.668c-0.405,-0.107 -0.955,-0.142 -1.65,-0.105c-0.695,0.037 -1.095,0.271 -1.199,0.7c-0.05,0.395 -0.335,0.9 -0.855,1.516c-0.52,0.615 -0.784,1.154 -0.792,1.616c-0.028,1.648 0.083,2.728 0.335,3.239c1.152,0.168 3.104,0.238 5.857,0.208c0.201,0.032 0.523,0.013 0.967,-0.057c0.443,-0.071 0.827,-0.088 1.152,-0.052c0.324,0.037 0.559,0.193 0.703,0.468Z" style="fill-rule:nonzero;"/>
    <path d="M245.046,72.64c1.687,0.205 3.625,0.281 5.815,0.228c0.237,-0.02 0.882,-0.057 1.935,-0.11c1.052,-0.054 1.805,-0.114 2.258,-0.181c0.453,-0.067 1.036,-0.237 1.75,-0.51c0.713,-0.273 1.3,-0.644 1.76,-1.112c0.772,-0.554 1.632,-1.502 2.579,-2.846c0.948,-1.344 1.544,-2.153 1.788,-2.426c0.516,-0.743 1.017,-1.88 1.502,-3.411c0.486,-1.531 0.88,-2.584 1.182,-3.161c-0.294,-0.931 -0.274,-2.209 0.059,-3.834c-0.626,-3.245 -1.611,-5.479 -2.957,-6.7c-0.921,-1.711 -3.13,-3.037 -6.626,-3.976c-0.255,-0.07 -0.686,-0.155 -1.295,-0.255c-0.609,-0.099 -1.083,-0.188 -1.42,-0.267c-0.337,-0.078 -0.726,-0.229 -1.166,-0.453c-0.44,-0.223 -0.618,-0.495 -0.534,-0.814c0.083,-0.319 0.241,-0.769 0.474,-1.35c0.182,-0.551 0.534,-0.942 1.055,-1.174c0.521,-0.232 1.023,-0.339 1.507,-0.321c0.484,0.018 1.123,0.077 1.917,0.178c0.794,0.1 1.336,0.153 1.626,0.16c1.009,0.236 2.019,0.56 3.031,0.973c1.012,0.413 2.205,0.959 3.579,1.638c1.373,0.679 2.328,1.139 2.864,1.379c0.364,0.118 0.89,0.39 1.58,0.815c0.689,0.425 1.267,0.764 1.733,1.017c0.466,0.253 0.951,0.308 1.456,0.165c0.504,-0.143 0.887,-0.603 1.15,-1.379c0.629,-0.999 1.229,-2.585 1.801,-4.758c0.718,-0.986 0.861,-1.984 0.429,-2.993c-0.433,-1.01 -1.165,-1.829 -2.198,-2.456c-0.45,-0.212 -1.194,-0.717 -2.232,-1.513c-1.037,-0.796 -1.91,-1.27 -2.617,-1.421c-5.236,-2.354 -10.761,-3.113 -16.575,-2.277c-1.112,0.19 -2.656,0.337 -4.633,0.442c-1.977,0.105 -3.777,0.28 -5.401,0.525c-1.625,0.245 -3.101,0.679 -4.429,1.301c-0.385,0.234 -1.519,0.79 -3.403,1.667c-1.884,0.877 -3.22,1.707 -4.007,2.49c-0.114,0.542 -0.483,1.137 -1.107,1.786c-0.624,0.649 -0.98,1.235 -1.069,1.76c-0.513,0.232 -0.77,0.497 -0.771,0.797c-0.001,0.3 0.105,0.667 0.319,1.104c0.214,0.436 0.291,0.816 0.232,1.141c0.025,0.601 0.146,1.05 0.364,1.345c0.217,0.296 0.522,0.443 0.913,0.443c0.392,0 0.769,-0.045 1.134,-0.136c0.364,-0.09 0.808,-0.223 1.334,-0.4c0.525,-0.176 0.926,-0.29 1.204,-0.341c1.688,-0.786 4.321,-1.504 7.899,-2.154c0.299,-0.025 0.919,-0.12 1.862,-0.285c0.943,-0.164 1.735,-0.243 2.376,-0.236c0.642,0.008 1.211,0.143 1.709,0.407c-0.352,1.413 -1.047,4.019 -2.084,7.818c-0.095,0.566 -0.407,1.544 -0.935,2.936c-0.528,1.392 -0.794,2.491 -0.797,3.298c0.242,0.812 0.593,1.299 1.053,1.461c0.461,0.162 0.903,0.119 1.327,-0.129c0.423,-0.248 0.952,-0.587 1.587,-1.017c0.634,-0.43 1.117,-0.705 1.449,-0.825c1.691,-0.201 3.349,0.044 4.974,0.733c1.625,0.689 2.762,1.736 3.412,3.141c0.69,1.098 0.708,1.99 0.055,2.677c-0.654,0.686 -1.597,1.055 -2.829,1.106c-4.039,0.398 -7.468,-0.055 -10.288,-1.361c-0.569,-0.249 -1.528,-0.497 -2.878,-0.746c-1.35,-0.249 -2.338,-0.518 -2.964,-0.806c-0.764,-0.883 -1.639,-1.196 -2.624,-0.939c-0.985,0.257 -1.668,0.917 -2.048,1.978c0.159,0.573 0.007,1.208 -0.455,1.904c-0.462,0.697 -0.691,1.246 -0.687,1.646c-0.424,0.963 -0.388,1.877 0.108,2.744c0.495,0.866 1.296,1.302 2.401,1.306c0.253,0.36 0.579,0.66 0.976,0.9c0.397,0.24 0.911,0.485 1.541,0.734c0.63,0.25 1.084,0.446 1.363,0.591c1.747,0.965 3.949,1.744 6.607,2.339Z" style="fill-rule:nonzero;"/>
    <path d="M274.653,142.401l0.494,0.446l0.455,0.317c1.562,0.299 2.868,-0.457 3.92,-2.268c1.052,-1.811 1.558,-3.641 1.52,-5.491c-2.98,-3.754 -5.329,-8.371 -7.046,-13.849c-1.47,-2.972 -1.89,-7.791 -1.259,-14.458c0.186,-0.488 0.604,-1.688 1.255,-3.603c0.651,-1.914 1.238,-3.442 1.761,-4.582c0.522,-1.141 1.14,-2.185 1.852,-3.132c0.89,-1.658 2.556,-3.625 4.996,-5.9c2.441,-2.275 3.911,-3.705 4.412,-4.288c0.784,-0.913 1.685,-1.687 2.702,-2.323c1.017,-0.635 2.306,-1.295 3.865,-1.978c1.56,-0.683 2.623,-1.175 3.191,-1.476c3.567,-0.458 6.29,-3.366 8.171,-8.726c0.605,-1.4 0.584,-2.646 -0.061,-3.739c-0.645,-1.093 -1.628,-2.198 -2.951,-3.315c-1.323,-1.117 -2.186,-2.072 -2.59,-2.864c-3.188,-3.535 -4.756,-7.169 -4.702,-10.904c-0.966,-3.038 -0.829,-7.807 0.411,-14.308c0.578,-1.5 0.695,-2.799 0.351,-3.898c-0.344,-1.098 -1.057,-1.639 -2.137,-1.622c-1.08,0.017 -2.037,0.764 -2.871,2.24c-0.917,0.889 -1.592,1.966 -2.023,3.229c-0.431,1.263 -0.776,2.773 -1.033,4.529c-0.258,1.757 -0.511,3.049 -0.759,3.876c-0.075,0.915 -0.362,2.288 -0.863,4.12c-0.5,1.832 -0.766,3.168 -0.799,4.007c-0.032,0.84 0.273,2.165 0.916,3.975c0.273,0.815 0.566,2.027 0.881,3.638c0.315,1.611 0.675,3.028 1.081,4.252c0.406,1.223 0.969,2.255 1.691,3.094c1.059,0.871 1.451,1.777 1.178,2.717c-0.274,0.94 -0.664,1.641 -1.169,2.103c-0.505,0.463 -1.256,1.071 -2.254,1.826c-0.998,0.754 -1.692,1.381 -2.081,1.881c-0.725,0.681 -1.912,1.967 -3.562,3.858c-1.649,1.891 -2.971,3.235 -3.965,4.033c-3.604,5.871 -5.84,9.699 -6.71,11.485c-0.759,1.221 -2.123,4.66 -4.092,10.316c-1.064,3.232 -1.526,7.652 -1.386,13.261c-0.097,1.322 0.014,2.676 0.333,4.062c0.319,1.385 0.77,2.906 1.353,4.56c0.582,1.655 0.981,2.948 1.196,3.882l1.347,2.788l1.49,3.063c0.37,0.725 0.877,1.587 1.519,2.586c0.643,0.998 1.301,1.858 1.972,2.58Z" style="fill-rule:nonzero;"/>
</svg>
