<?xml version="1.0" encoding="UTF-8" standalone="no"?>
<!DOCTYPE svg PUBLIC "-//W3C//DTD SVG 1.1//EN" "http://www.w3.org/Graphics/SVG/1.1/DTD/svg11.dtd">
<svg width="100%" height="100%" viewBox="0 0 326 75" version="1.1" xmlns="http://www.w3.org/2000/svg" xmlns:xlink="http://www.w3.org/1999/xlink" xml:space="preserve" xmlns:serif="http://www.serif.com/" style="fill-rule:evenodd;clip-rule:evenodd;stroke-linejoin:round;stroke-miterlimit:2;">
    <g transform="matrix(1,0,0,1,-136.431,-112.301)">
        <g transform="matrix(1,0,0,1,0,-43.8603)">
            <g transform="matrix(1,0,0,1,182.76,157.093)">
                <path d="M0,73.322L-15.923,73.322L-28.025,44.056L-31.337,44.056L-31.337,73.322L-46.329,73.322L-46.329,0L-31.129,0L-31.129,28.65L-27.609,28.65L-17.687,0L-2.48,0L-16.963,34.235L0,73.322Z" style="fill-rule:nonzero;"/>
            </g>
            <g transform="matrix(1,0,0,1,210.569,181.914)">
                <path d="M0,22.132L2.896,-11.994L6.933,-11.994L10.346,22.132L0,22.132ZM16.547,-25.753L-6.717,-25.753L-16.963,47.885L-2.581,47.885L-1.132,33.818L11.686,33.818L12.926,47.885L27.509,47.885L16.547,-25.753Z" style="fill-rule:nonzero;"/>
            </g>
            <g transform="matrix(1,0,0,1,300.106,229.8)">
                <path d="M0,-73.43L0,0L-13.55,0L-13.55,-48.093L-16.755,-48.093L-23.58,-0.208L-28.341,-0.208L-35.474,-48.093L-38.995,-48.093L-38.995,0L-52.129,0L-52.129,-73.222L-34.234,-73.222L-27.925,-36.715L-23.996,-36.715L-18.411,-73.43L0,-73.43Z" style="fill-rule:nonzero;"/>
            </g>
            <g transform="matrix(-1,0,0,1,634.709,-455.414)">
                <rect x="309.751" y="611.991" width="15.207" height="73.322"/>
            </g>
            <g transform="matrix(1,0,0,1,358.861,203.839)">
                <path d="M0,-21.408L0,-35.475L-10.654,-35.475L-10.654,14.274L0,14.274L0,1.032L-4.137,1.032L-4.137,-11.07L14.998,-11.07L14.998,15.923L4.137,25.961L-14.274,25.961L-25.545,15.514L-25.545,-36.923L-14.583,-47.369L3.62,-47.369L15.099,-36.923L15.099,-21.408L0,-21.408Z" style="fill-rule:nonzero;"/>
            </g>
            <g transform="matrix(1,0,0,1,413.332,168.372)">
                <path d="M0,49.533L0,61.635L-30.197,61.635L-30.197,-12.102L-0.308,-12.102L-0.308,0.2L-15.099,0.2L-15.099,16.647L-2.896,16.647L-2.896,28.533L-15.099,28.533L-15.099,49.533L0,49.533Z" style="fill-rule:nonzero;"/>
            </g>
            <g transform="matrix(1,0,0,1,462.419,230.207)">
                <path d="M0,-73.938L0,0L-12.103,0L-22.856,-33.61L-26.062,-33.61L-26.062,-0.201L-40.128,-0.201L-40.128,-73.738L-27.718,-73.738L-16.132,-37.439L-13.858,-37.439L-13.858,-73.938L0,-73.938Z" style="fill-rule:nonzero;"/>
            </g>
        </g>
    </g>
</svg>
