<?xml version="1.0" encoding="UTF-8" standalone="no"?>
<!DOCTYPE svg PUBLIC "-//W3C//DTD SVG 1.1//EN" "http://www.w3.org/Graphics/SVG/1.1/DTD/svg11.dtd">
<svg width="326px" height="75px" version="1.1" xmlns="http://www.w3.org/2000/svg" xmlns:xlink="http://www.w3.org/1999/xlink" xml:space="preserve" xmlns:serif="http://www.serif.com/" style="fill-rule:evenodd;clip-rule:evenodd;stroke-linejoin:round;stroke-miterlimit:2;">
    <path d="M46.329,74.254l-15.923,0l-12.102,-29.266l-3.312,0l0,29.266l-14.992,0l0,-73.322l15.2,0l0,28.65l3.52,0l9.922,-28.65l15.207,0l-14.483,34.235l16.963,39.087Z" style="fill-rule:nonzero;"/>
    <path d="M74.139,47.885l2.896,-34.126l4.037,-0l3.413,34.126l-10.346,-0Zm16.547,-47.885l-23.264,-0l-10.246,73.638l14.382,-0l1.449,-14.067l12.818,-0l1.24,14.067l14.583,-0l-10.962,-73.638Z" style="fill-rule:nonzero;"/>
    <path d="M163.676,0.208l-0,73.43l-13.55,0l-0,-48.093l-3.205,0l-6.825,47.885l-4.761,0l-7.133,-47.885l-3.521,0l-0,48.093l-13.134,0l-0,-73.222l17.895,0l6.309,36.507l3.929,0l5.585,-36.715l18.411,0Z" style="fill-rule:nonzero;"/>
    <rect x="173.32" y="0.416" width="15.207" height="73.322"/>
    <path d="M222.431,26.269l-0.001,-14.067l-10.654,0l0,49.749l10.654,0l0,-13.242l-4.137,0l0,-12.102l19.135,0l0,26.993l-10.861,10.038l-18.411,0l-11.27,-10.447l-0,-52.437l10.962,-10.446l18.203,0l11.478,10.446l0,15.515l-15.099,0Z" style="fill-rule:nonzero;"/>
    <path d="M276.901,61.743l0,12.102l-30.197,0l0,-73.737l29.889,0l0,12.302l-14.791,0l0,16.447l12.203,0l0,11.886l-12.203,0l0,21l15.099,0Z" style="fill-rule:nonzero;"/>
    <path d="M325.988,0.108l0,73.938l-12.103,0l-10.753,-33.61l-3.206,0l0,33.409l-14.066,0l0,-73.537l12.41,0l11.586,36.299l2.274,0l0,-36.499l13.858,0Z" style="fill-rule:nonzero;"/>
</svg>
